# Blender v2.82 (sub 7) OBJ File: 'uigaw0gc9w-Barco.blend'
# www.blender.org
o Barco
v -0.000002 -0.352740 1.416211
v -0.000002 0.387798 2.049824
v -0.297999 0.387798 1.772118
v -0.122722 -0.352740 1.301856
v 0.122718 -0.352740 1.301856
v 0.297995 0.387798 1.772118
v 0.238595 -0.352740 1.169133
v 0.439125 0.387798 1.610479
v 0.346650 -0.352740 1.019173
v 0.570711 0.387798 1.427860
v 0.445949 -0.352740 0.853273
v 0.691654 0.387798 1.225807
v 0.535658 -0.352740 0.672808
v 0.800900 0.387798 1.006027
v 0.615007 -0.352740 0.479350
v 0.897542 0.387798 0.770415
v 0.683328 -0.352740 0.274533
v 0.980757 0.387798 0.520970
v 0.740044 -0.352740 0.060082
v 1.049820 0.387798 0.259799
v 0.784660 -0.352740 -0.162156
v 1.104154 0.387798 -0.010868
v 0.816801 -0.352740 -0.390318
v 1.143302 0.387798 -0.288726
v 0.836192 -0.352740 -0.622434
v 1.166925 0.387798 -0.571424
v 0.842677 -0.352740 -0.856535
v 1.174472 0.387798 -0.843770
v 0.842677 -0.352740 -3.129280
v 1.174472 0.387798 -3.129280
v -0.842680 -0.352740 -3.129280
v -0.238599 -0.352740 1.169133
v -0.346645 -0.352740 1.019173
v -0.445944 -0.352740 0.853273
v -0.535653 -0.352740 0.672808
v -0.615011 -0.352740 0.479350
v -0.683332 -0.352740 0.274533
v -0.740039 -0.352740 0.060082
v -0.784655 -0.352740 -0.162156
v -0.816796 -0.352740 -0.390318
v -0.836196 -0.352740 -0.622434
v -0.842681 -0.352740 -0.856535
v -1.174467 0.387798 -3.129280
v -1.174467 0.387798 -0.843771
v -1.340365 0.387798 -0.837389
v -1.174467 0.387798 -3.300081
v -1.174467 0.387798 -3.751259
v -1.340365 0.387798 -3.958855
v 1.174472 0.387798 -3.751259
v 1.340361 0.387798 -3.958855
v 1.340361 0.387798 -0.837389
v 0.951200 -0.502202 -3.310173
v 0.951199 -0.502202 -0.852366
v -0.951194 -0.502202 -3.310173
v -0.951194 -0.502202 -0.852366
v -1.332286 0.387798 -0.545912
v -0.944370 -0.502202 -0.605746
v -1.306557 0.387798 -0.237945
v -0.923587 -0.502202 -0.357080
v -1.263910 0.387798 0.064769
v -0.889156 -0.502202 -0.112673
v -1.204712 0.387798 0.359651
v -0.841362 -0.502202 0.125397
v -1.129466 0.387798 0.644181
v -0.780606 -0.502202 0.355132
v -1.038814 0.387798 0.915947
v -0.707412 -0.502202 0.574544
v -0.933525 0.387798 1.172645
v -0.622412 -0.502202 0.781805
v -0.814497 0.387798 1.412074
v -0.526310 -0.502202 0.975110
v -0.682746 0.387798 1.632204
v -0.419931 -0.502202 1.152842
v -0.539380 0.387798 1.831159
v -0.304181 -0.502202 1.313490
v -0.385638 0.387798 2.007258
v -0.180051 -0.502202 1.455664
v -0.000002 0.387798 2.366630
v -0.000002 -0.502202 1.623441
v 0.385633 0.387798 2.007258
v 0.180047 -0.502202 1.455664
v 0.539386 0.387798 1.831159
v 0.304187 -0.502202 1.313490
v 0.682751 0.387798 1.632204
v 0.419927 -0.502202 1.152842
v 0.814502 0.387798 1.412074
v 0.526306 -0.502202 0.975110
v 0.933530 0.387798 1.172645
v 0.622408 -0.502202 0.781805
v 1.038819 0.387798 0.915947
v 0.707418 -0.502202 0.574545
v 1.129462 0.387798 0.644181
v 0.780612 -0.502202 0.355132
v 1.204708 0.387798 0.359651
v 0.841358 -0.502202 0.125397
v 1.263906 0.387798 0.064769
v 0.889152 -0.502202 -0.112673
v 1.306553 0.387798 -0.237945
v 0.923592 -0.502202 -0.357080
v 1.332291 0.387798 -0.545911
v 0.944366 -0.502202 -0.605746
v 1.174472 0.387798 -3.300081
v 1.174472 0.147798 -3.300081
v 1.174472 0.147798 -3.751259
v -1.174467 0.147798 -3.300081
v -1.174467 0.147798 -3.751259
v -0.439120 0.387798 1.610479
v -0.570716 0.387798 1.427860
v -0.691649 0.387798 1.225807
v -0.800904 0.387798 1.006027
v -0.897547 0.387798 0.770415
v -0.980752 0.387798 0.520970
v -1.049824 0.387798 0.259799
v -1.104159 0.387798 -0.010868
v -1.143306 0.387798 -0.288726
v -1.166929 0.387798 -0.571424
vt 0.969207 2.242167
vt 0.079953 2.582268
vt 0.079953 2.847640
vt 0.079953 2.582268
vt 0.969207 2.132891
vt 0.079953 2.427806
vt 0.969207 2.006062
vt 0.079953 2.253298
vt 0.969207 1.862761
vt 0.079953 2.060218
vt 0.969207 1.704230
vt 0.079953 1.850199
vt 0.969207 1.531779
vt 0.079953 1.625051
vt 0.969207 1.346912
vt 0.079953 1.386683
vt 0.969207 1.151191
vt 0.079953 1.137112
vt 0.969207 0.946264
vt 0.079953 0.878465
vt 0.969207 0.733896
vt 0.079953 0.612947
vt 0.969207 0.515867
vt 0.079953 0.342804
vt 0.969207 0.294060
vt 0.079953 0.082553
vt 0.969207 0.070355
vt 0.079953 -2.101455
vt 0.969207 -2.101455
vt -0.564765 0.595905
vt 0.878178 0.110691
vt 1.115524 0.595905
vt 0.969207 0.070355
vt 0.079953 -2.101455
vt 0.079953 0.082553
vt 1.431976 -1.053399
vt 1.431975 0.375659
vt 1.317121 -0.673606
vt 0.710322 1.570333
vt 0.770996 1.677983
vt 0.504012 1.697471
vt 0.069972 0.373678
vt 0.936171 -1.541489
vt 0.069972 -2.043892
vt 1.234191 0.595905
vt -0.405049 0.012760
vt -0.683438 0.595905
vt 0.069972 0.373678
vt 0.936171 -1.541489
vt 0.936171 0.362078
vt 0.936171 0.553085
vt 0.069972 0.599426
vt 0.936171 0.745676
vt 0.069972 0.837946
vt 0.936171 0.934968
vt 0.069972 1.072397
vt 0.936171 1.119354
vt 0.069972 1.300782
vt 0.936171 1.297283
vt 0.069972 1.521150
vt 0.936171 1.467217
vt 0.069972 1.731632
vt 0.936171 1.627740
vt 0.069972 1.930445
vt 0.936171 1.777455
vt 0.069972 2.115881
vt 0.936171 1.915106
vt 0.069972 2.286372
vt 0.936171 2.039529
vt 0.069972 2.440463
vt 0.936171 2.149642
vt 0.069972 2.576851
vt 0.936171 2.279585
vt 0.069972 2.855184
vt 0.069972 2.576851
vt 0.936171 2.149642
vt 0.069972 2.440463
vt 0.936171 2.039529
vt 0.069972 2.286372
vt 0.936171 1.915106
vt 0.069972 2.115881
vt 0.936171 1.777455
vt 0.069972 1.930445
vt 0.936171 1.627740
vt 0.069972 1.731632
vt 0.936171 1.467217
vt 0.069972 1.521150
vt 0.936171 1.297283
vt 0.069972 1.300782
vt 0.936171 1.119354
vt 0.069972 1.072397
vt 0.936171 0.934968
vt 0.069972 0.837946
vt 0.936171 0.745676
vt 0.069972 0.599426
vt 0.936171 0.553085
vt 0.936171 0.362078
vt 1.311902 0.497421
vt 1.426382 0.509102
vt 1.115524 0.595905
vt 1.115524 0.438653
vt 1.115524 0.595905
vt -0.564765 0.595905
vt 1.317121 -0.958358
vt -0.423951 -1.053399
vt -0.564765 0.438652
vt -0.564765 0.595905
vt -0.564765 0.438652
vt 1.317121 -0.958358
vt -0.309102 -0.751801
vt -0.309102 -0.958358
vt -0.260420 0.754053
vt -0.400545 0.650094
vt -0.287523 0.626845
vt -0.222803 0.877969
vt -0.371020 0.788681
vt -0.174989 0.997536
vt -0.330035 0.923682
vt -0.117378 1.111737
vt -0.277941 1.053945
vt -0.050470 1.219603
vt -0.215187 1.178364
vt 0.025163 1.320222
vt -0.142293 1.295884
vt 0.108895 1.412726
vt -0.059887 1.405498
vt 0.199995 1.496331
vt 0.297703 1.570333
vt 0.130582 1.597362
vt -0.418364 0.509102
vt -0.303877 0.497421
vt 0.504012 1.842509
vt 0.237029 1.677983
vt 0.808024 1.496331
vt 0.976691 1.506278
vt 0.877436 1.597362
vt 0.899130 1.412726
vt 1.067905 1.405498
vt 0.982855 1.320222
vt 1.150311 1.295884
vt 1.058494 1.219603
vt 1.223205 1.178364
vt 1.125402 1.111737
vt 1.285966 1.053945
vt 1.183007 0.997537
vt 1.338060 0.923682
vt 1.230827 0.877969
vt 1.379044 0.788681
vt 1.268444 0.754053
vt 1.408570 0.650094
vt 1.295547 0.626845
vt 0.969207 0.294060
vt 0.079953 0.342804
vt 0.969207 0.515867
vt 0.079953 0.612947
vt 0.969207 0.733896
vt 0.079953 0.878465
vt 0.969207 0.946264
vt 0.079953 1.137112
vt 0.969207 1.151191
vt 0.079953 1.386683
vt 0.969207 1.346912
vt 0.079953 1.625051
vt 0.969207 1.531779
vt 0.079953 1.850199
vt 0.969207 1.704230
vt 0.079953 2.060218
vt 0.969207 1.862761
vt 0.079953 2.253298
vt 0.969207 2.006062
vt 0.079953 2.427806
vt 0.969207 2.132891
vt 1.162544 0.368802
vt 1.162544 -0.756422
vt -0.154525 0.368802
vt -0.309102 -0.673606
vt -0.423951 0.375659
vt -0.074903 0.474068
vt -0.079393 0.366893
vt 1.082928 0.474068
vt -0.327425 0.110691
vt 0.969207 -2.101455
vt -0.309102 -0.751802
vt 1.317121 -0.751802
vt 1.317121 0.372737
vt 0.955808 0.012760
vt 0.069972 -2.043892
vt 1.115524 0.438653
vt -0.309102 -0.958358
vt 1.317121 -0.751802
vt 0.031327 1.506278
vt -0.154525 -0.756422
vt -0.149795 0.481708
vt -0.135413 0.595552
vt 1.157819 0.481708
vt -0.111569 0.707445
vt 1.143431 0.595552
vt -0.078480 0.816437
vt 1.119594 0.707445
vt -0.036424 0.921613
vt 1.044442 0.921613
vt 0.014250 1.022064
vt 0.993768 1.022064
vt 0.073104 1.116951
vt 0.934920 1.116951
vt 0.139638 1.205449
vt 0.868387 1.205449
vt 0.213286 1.286818
vt 0.794738 1.286818
vt 0.293415 1.360365
vt 0.714603 1.360365
vt 0.379360 1.425454
vt 0.504012 1.502265
vt 0.628664 1.425454
vt 1.086504 0.816437
vt -0.309102 0.372737
vt 1.087418 -0.673606
vt 1.087417 0.366893
vt -0.079393 -0.673606
vt 1.069497 0.580335
vt -0.061479 0.580335
vt 1.047245 0.684790
vt -0.039227 0.684790
vt 1.016356 0.786535
vt 0.977097 0.884714
vt -0.008338 0.786535
vt 0.929797 0.978483
vt 0.078228 0.978483
vt 0.874855 1.067051
vt 0.133163 1.067051
vt 0.812748 1.149670
vt 0.744001 1.225622
vt 0.195271 1.149670
vt 0.669198 1.294276
vt 0.338826 1.294276
vt 0.588974 1.355039
vt 0.419051 1.355039
vt 0.504012 1.407392
vt 0.264017 1.225622
vt 0.030928 0.884714
vn 0.5779 0.5306 -0.6201
vn -0.5779 0.5306 -0.6201
vn -0.6471 0.5119 -0.5650
vn -0.7054 0.4940 -0.5083
vn -0.7540 0.4772 -0.4513
vn -0.7941 0.4621 -0.3948
vn -0.8268 0.4487 -0.3391
vn -0.8531 0.4373 -0.2846
vn -0.8738 0.4278 -0.2311
vn -0.8896 0.4203 -0.1786
vn -0.9011 0.4147 -0.1269
vn -0.9085 0.4110 -0.0759
vn -0.9121 0.4091 -0.0253
vn -0.9126 0.4089 -0.0000
vn 0.0000 0.0000 1.0000
vn 0.9126 0.4089 0.0000
vn -0.0000 1.0000 0.0000
vn 0.9162 -0.4006 0.0000
vn 0.0000 -0.5890 -0.8081
vn -0.9162 -0.4006 -0.0000
vn -0.9158 -0.4009 0.0254
vn -0.9122 -0.4027 0.0762
vn -0.9048 -0.4064 0.1275
vn -0.8934 -0.4119 0.1793
vn -0.8776 -0.4194 0.2321
vn -0.8570 -0.4288 0.2859
vn -0.8308 -0.4401 0.3408
vn -0.7982 -0.4533 0.3968
vn -0.7582 -0.4683 0.4538
vn -0.7095 -0.4849 0.5113
vn -0.6512 -0.5028 0.5685
vn -0.5818 -0.5213 0.6243
vn 0.5818 -0.5213 0.6243
vn 0.6511 -0.5028 0.5685
vn 0.7096 -0.4849 0.5112
vn 0.7581 -0.4683 0.4538
vn 0.7982 -0.4533 0.3968
vn 0.8308 -0.4401 0.3408
vn 0.8570 -0.4288 0.2859
vn 0.8776 -0.4194 0.2321
vn 0.8934 -0.4119 0.1794
vn 0.9048 -0.4064 0.1275
vn 0.9122 -0.4027 0.0762
vn 0.9158 -0.4009 0.0254
vn -1.0000 0.0000 0.0000
vn 0.0000 0.0000 -1.0000
vn 1.0000 -0.0000 0.0000
vn 0.9121 0.4091 -0.0252
vn 0.9085 0.4110 -0.0759
vn 0.9011 0.4147 -0.1270
vn 0.8896 0.4203 -0.1786
vn 0.8738 0.4278 -0.2311
vn 0.8531 0.4373 -0.2846
vn 0.8268 0.4488 -0.3391
vn 0.7941 0.4621 -0.3948
vn 0.7540 0.4772 -0.4513
vn 0.7054 0.4940 -0.5083
vn 0.6471 0.5119 -0.5650
vn 0.0000 -1.0000 0.0000
vn -0.7941 0.4621 -0.3947
vn -0.8738 0.4279 -0.2311
vn -0.9011 0.4147 -0.1270
vn -0.9158 -0.4009 0.0253
vn -0.8934 -0.4119 0.1794
vn -0.8308 -0.4401 0.3407
vn -0.7581 -0.4683 0.4538
vn -0.7096 -0.4849 0.5113
vn 0.6512 -0.5028 0.5685
vn 0.7095 -0.4849 0.5113
vn 0.7582 -0.4683 0.4538
vn 0.8570 -0.4288 0.2858
vn 0.8934 -0.4119 0.1793
vn 0.9121 0.4091 -0.0253
vn 0.9011 0.4147 -0.1269
vn 0.8738 0.4279 -0.2311
vn 0.8268 0.4488 -0.3392
s off
f 1/1/1 3/2/1 2/3/1
f 6/4/2 1/1/2 2/3/2
f 5/5/3 8/6/3 7/7/3
f 7/7/4 10/8/4 9/9/4
f 9/9/5 12/10/5 11/11/5
f 11/11/6 14/12/6 13/13/6
f 13/13/7 16/14/7 15/15/7
f 15/15/8 18/16/8 17/17/8
f 17/17/9 20/18/9 19/19/9
f 19/19/10 22/20/10 21/21/10
f 21/21/11 24/22/11 23/23/11
f 23/23/12 26/24/12 25/25/12
f 25/25/13 28/26/13 27/27/13
f 27/27/14 30/28/14 29/29/14
f 43/30/15 29/31/15 30/32/15
f 42/33/16 43/34/16 44/35/16
f 48/36/17 45/37/17 43/38/17
f 3/39/17 76/40/17 2/41/17
f 51/42/18 52/43/18 50/44/18
f 50/45/19 54/46/19 48/47/19
f 45/48/20 54/49/20 55/50/20
f 45/48/21 57/51/21 56/52/21
f 56/52/22 59/53/22 58/54/22
f 58/54/23 61/55/23 60/56/23
f 60/56/24 63/57/24 62/58/24
f 62/58/25 65/59/25 64/60/25
f 64/60/26 67/61/26 66/62/26
f 66/62/27 69/63/27 68/64/27
f 68/64/28 71/65/28 70/66/28
f 70/66/29 73/67/29 72/68/29
f 72/68/30 75/69/30 74/70/30
f 74/70/31 77/71/31 76/72/31
f 76/72/32 79/73/32 78/74/32
f 80/75/33 79/73/33 81/76/33
f 82/77/34 81/76/34 83/78/34
f 84/79/35 83/78/35 85/80/35
f 86/81/36 85/80/36 87/82/36
f 88/83/37 87/82/37 89/84/37
f 90/85/38 89/84/38 91/86/38
f 92/87/39 91/86/39 93/88/39
f 94/89/40 93/88/40 95/90/40
f 96/91/41 95/90/41 97/92/41
f 98/93/42 97/92/42 99/94/42
f 100/95/43 99/94/43 101/96/43
f 51/42/44 101/96/44 53/97/44
f 116/98/17 45/37/17 56/99/17
f 49/100/45 103/101/45 102/102/45
f 103/101/46 46/103/46 102/102/46
f 47/104/17 50/105/17 48/36/17
f 105/106/47 47/107/47 46/103/47
f 106/108/15 49/100/15 47/107/15
f 106/109/17 103/110/17 104/111/17
f 22/112/17 98/113/17 24/114/17
f 20/115/17 96/116/17 22/112/17
f 18/117/17 94/118/17 20/115/17
f 16/119/17 92/120/17 18/117/17
f 14/121/17 90/122/17 16/119/17
f 12/123/17 88/124/17 14/121/17
f 10/125/17 86/126/17 12/123/17
f 8/127/17 6/128/17 82/129/17
f 24/114/17 100/130/17 26/131/17
f 2/41/17 78/132/17 80/133/17
f 76/40/17 78/132/17 2/41/17
f 6/128/17 80/133/17 82/129/17
f 107/134/17 72/135/17 74/136/17
f 108/137/17 70/138/17 72/135/17
f 109/139/17 68/140/17 70/138/17
f 110/141/17 66/142/17 68/140/17
f 111/143/17 64/144/17 66/142/17
f 112/145/17 62/146/17 64/144/17
f 113/147/17 60/148/17 62/146/17
f 114/149/17 58/150/17 60/148/17
f 115/151/17 56/99/17 58/150/17
f 41/152/48 44/35/48 116/153/48
f 40/154/49 116/153/49 115/155/49
f 39/156/50 115/155/50 114/157/50
f 38/158/51 114/157/51 113/159/51
f 37/160/52 113/159/52 112/161/52
f 36/162/53 112/161/53 111/163/53
f 35/164/54 111/163/54 110/165/54
f 34/166/55 110/165/55 109/167/55
f 33/168/56 109/167/56 108/169/56
f 32/170/57 108/169/57 107/171/57
f 4/172/58 107/171/58 3/2/58
f 55/173/59 54/174/59 53/175/59
f 30/176/17 51/177/17 50/105/17
f 25/178/17 27/179/17 41/180/17
f 51/177/17 26/131/17 100/130/17
f 1/1/1 4/172/1 3/2/1
f 6/4/2 5/5/2 1/1/2
f 5/5/3 6/4/3 8/6/3
f 7/7/4 8/6/4 10/8/4
f 9/9/5 10/8/5 12/10/5
f 11/11/60 12/10/60 14/12/60
f 13/13/7 14/12/7 16/14/7
f 15/15/8 16/14/8 18/16/8
f 17/17/61 18/16/61 20/18/61
f 19/19/10 20/18/10 22/20/10
f 21/21/62 22/20/62 24/22/62
f 23/23/12 24/22/12 26/24/12
f 25/25/13 26/24/13 28/26/13
f 27/27/14 28/26/14 30/28/14
f 43/30/15 31/181/15 29/31/15
f 42/33/16 31/182/16 43/34/16
f 43/38/17 30/176/17 102/183/17
f 46/184/17 47/104/17 48/36/17
f 43/38/17 102/183/17 46/184/17
f 45/37/17 44/185/17 43/38/17
f 46/184/17 48/36/17 43/38/17
f 3/39/17 74/136/17 76/40/17
f 51/42/18 53/97/18 52/43/18
f 50/45/19 52/186/19 54/46/19
f 45/48/20 48/187/20 54/49/20
f 45/48/63 55/50/63 57/51/63
f 56/52/22 57/51/22 59/53/22
f 58/54/23 59/53/23 61/55/23
f 60/56/64 61/55/64 63/57/64
f 62/58/25 63/57/25 65/59/25
f 64/60/26 65/59/26 67/61/26
f 66/62/65 67/61/65 69/63/65
f 68/64/28 69/63/28 71/65/28
f 70/66/66 71/65/66 73/67/66
f 72/68/67 73/67/67 75/69/67
f 74/70/31 75/69/31 77/71/31
f 76/72/32 77/71/32 79/73/32
f 80/75/33 78/74/33 79/73/33
f 82/77/68 80/75/68 81/76/68
f 84/79/69 82/77/69 83/78/69
f 86/81/70 84/79/70 85/80/70
f 88/83/37 86/81/37 87/82/37
f 90/85/38 88/83/38 89/84/38
f 92/87/71 90/85/71 91/86/71
f 94/89/40 92/87/40 93/88/40
f 96/91/72 94/89/72 95/90/72
f 98/93/42 96/91/42 97/92/42
f 100/95/43 98/93/43 99/94/43
f 51/42/44 100/95/44 101/96/44
f 116/98/17 44/185/17 45/37/17
f 49/100/45 104/188/45 103/101/45
f 103/101/46 105/106/46 46/103/46
f 47/104/17 49/189/17 50/105/17
f 105/106/47 106/108/47 47/107/47
f 106/108/15 104/188/15 49/100/15
f 106/109/17 105/190/17 103/110/17
f 22/112/17 96/116/17 98/113/17
f 20/115/17 94/118/17 96/116/17
f 18/117/17 92/120/17 94/118/17
f 16/119/17 90/122/17 92/120/17
f 14/121/17 88/124/17 90/122/17
f 12/123/17 86/126/17 88/124/17
f 10/125/17 84/191/17 86/126/17
f 82/129/17 84/191/17 8/127/17
f 84/191/17 10/125/17 8/127/17
f 24/114/17 98/113/17 100/130/17
f 6/128/17 2/41/17 80/133/17
f 74/136/17 3/39/17 107/134/17
f 107/134/17 108/137/17 72/135/17
f 108/137/17 109/139/17 70/138/17
f 109/139/17 110/141/17 68/140/17
f 110/141/17 111/143/17 66/142/17
f 111/143/17 112/145/17 64/144/17
f 112/145/17 113/147/17 62/146/17
f 113/147/17 114/149/17 60/148/17
f 114/149/17 115/151/17 58/150/17
f 115/151/17 116/98/17 56/99/17
f 41/152/73 42/33/73 44/35/73
f 40/154/49 41/152/49 116/153/49
f 39/156/74 40/154/74 115/155/74
f 38/158/51 39/156/51 114/157/51
f 37/160/75 38/158/75 113/159/75
f 36/162/53 37/160/53 112/161/53
f 35/164/76 36/162/76 111/163/76
f 34/166/55 35/164/55 110/165/55
f 33/168/56 34/166/56 109/167/56
f 32/170/57 33/168/57 108/169/57
f 4/172/58 32/170/58 107/171/58
f 54/174/59 52/192/59 53/175/59
f 53/175/59 101/193/59 55/173/59
f 101/193/59 99/194/59 57/195/59
f 55/173/59 101/193/59 57/195/59
f 99/194/59 97/196/59 59/197/59
f 97/196/59 95/198/59 61/199/59
f 59/197/59 97/196/59 61/199/59
f 95/198/59 93/200/59 65/201/59
f 93/200/59 91/202/59 67/203/59
f 91/202/59 89/204/59 69/205/59
f 89/204/59 87/206/59 71/207/59
f 87/206/59 85/208/59 73/209/59
f 85/208/59 83/210/59 75/211/59
f 83/210/59 81/212/59 75/211/59
f 81/212/59 79/213/59 77/214/59
f 75/211/59 81/212/59 77/214/59
f 75/211/59 73/209/59 85/208/59
f 73/209/59 71/207/59 87/206/59
f 71/207/59 69/205/59 89/204/59
f 69/205/59 67/203/59 91/202/59
f 67/203/59 65/201/59 93/200/59
f 65/201/59 63/215/59 95/198/59
f 63/215/59 61/199/59 95/198/59
f 59/197/59 57/195/59 99/194/59
f 50/105/17 49/189/17 102/183/17
f 30/176/17 28/216/17 51/177/17
f 50/105/17 102/183/17 30/176/17
f 31/217/17 42/218/17 29/219/17
f 42/218/17 41/180/17 27/179/17
f 29/219/17 42/218/17 27/179/17
f 41/180/17 40/220/17 23/221/17
f 40/220/17 39/222/17 21/223/17
f 39/222/17 38/224/17 21/223/17
f 38/224/17 37/225/17 19/226/17
f 21/223/17 38/224/17 19/226/17
f 37/225/17 36/227/17 15/228/17
f 36/227/17 35/229/17 13/230/17
f 35/229/17 34/231/17 13/230/17
f 34/231/17 33/232/17 11/233/17
f 13/230/17 34/231/17 11/233/17
f 33/232/17 32/234/17 7/235/17
f 32/234/17 4/236/17 5/237/17
f 4/236/17 1/238/17 5/237/17
f 5/237/17 7/235/17 32/234/17
f 7/235/17 9/239/17 33/232/17
f 9/239/17 11/233/17 33/232/17
f 13/230/17 15/228/17 36/227/17
f 15/228/17 17/240/17 37/225/17
f 17/240/17 19/226/17 37/225/17
f 21/223/17 23/221/17 40/220/17
f 23/221/17 25/178/17 41/180/17
f 51/177/17 28/216/17 26/131/17
